<?xml version="1.0" encoding="UTF-8"?>
<svg version="1.1" xmlns="http://www.w3.org/2000/svg" width="720" height="720">
<path d="M0 0 C0.99674744 0.00182281 1.99349487 0.00364563 3.02044678 0.00552368 C19.65649469 0.05644054 35.96342892 0.82671716 52.4375 3.3125 C53.59266113 3.48410645 54.74782227 3.65571289 55.93798828 3.83251953 C115.54172639 12.96528455 172.95478822 37.02703526 220.4375 74.3125 C221.33210937 75.00601563 222.22671875 75.69953125 223.1484375 76.4140625 C225.60679857 78.34733674 228.02443238 80.323043 230.4375 82.3125 C231.36304688 83.05242187 232.28859375 83.79234375 233.2421875 84.5546875 C241.91612088 91.63168901 249.82546442 99.48411839 257.75 107.375 C258.58930054 108.20653595 258.58930054 108.20653595 259.44555664 109.05487061 C266.58341831 116.14068645 273.19178591 123.41216469 279.4375 131.3125 C280.41368836 132.48664488 281.39357237 133.65773811 282.37890625 134.82421875 C296.79122734 152.15897827 308.78800265 171.48098512 319.4375 191.3125 C319.89962891 192.16956543 320.36175781 193.02663086 320.83789062 193.90966797 C345.25908333 239.68659597 360.29712008 293.2141688 360.67578125 345.2578125 C360.6855751 346.37402481 360.69536896 347.49023712 360.70545959 348.64027405 C360.87614679 373.14689718 360.80886419 397.13287558 356.4375 421.3125 C356.10806396 423.13539551 356.10806396 423.13539551 355.77197266 424.99511719 C343.29957821 491.60282312 313.35702582 552.7437036 267.72265625 602.8046875 C266.1340598 604.54807027 264.55949204 606.30429779 262.99609375 608.0703125 C252.15809584 620.1843191 240.26537379 631.32581311 227.4375 641.3125 C226.83389648 641.78864746 226.23029297 642.26479492 225.60839844 642.75537109 C209.09378084 655.7670107 191.79979102 667.08661003 173.4375 677.3125 C172.70547363 677.72709473 171.97344727 678.14168945 171.21923828 678.56884766 C125.11373458 704.57470185 69.3216544 720.30328627 16.28125 720.515625 C15.14006714 720.52132507 13.99888428 720.52702515 12.82312012 720.53289795 C10.41285105 720.54229543 8.00256943 720.54886088 5.59228516 720.55273438 C2.00268339 720.56232583 -1.58631616 720.59335297 -5.17578125 720.625 C-26.74918236 720.72473696 -48.02844643 718.85099861 -69.1875 714.5625 C-71.11396362 714.17952759 -71.11396362 714.17952759 -73.0793457 713.78881836 C-130.23517731 702.20419581 -183.49773412 676.17895499 -228.5625 639.3125 C-229.10422852 638.87518555 -229.64595703 638.43787109 -230.20410156 637.98730469 C-239.66451561 630.29896582 -248.30548012 621.777842 -256.9375 613.1875 C-257.49562378 612.63464325 -258.05374756 612.0817865 -258.62878418 611.51217651 C-265.74684762 604.44608598 -272.33641568 597.19283491 -278.5625 589.3125 C-279.56259983 588.1036117 -280.56601719 586.89745234 -281.57421875 585.6953125 C-290.04907734 575.43929193 -297.38813769 564.50586527 -304.5625 553.3125 C-304.98096191 552.6637793 -305.39942383 552.01505859 -305.83056641 551.34667969 C-331.71198608 510.89223697 -348.00733847 464.79686539 -355.8125 417.5625 C-355.96372314 416.6547583 -356.11494629 415.7470166 -356.27075195 414.81176758 C-359.04523889 396.86924986 -359.94462552 378.88334789 -359.875 360.75 C-359.87317719 359.7535849 -359.87135437 358.7571698 -359.86947632 357.7305603 C-359.6151613 274.67061204 -330.4779511 193.90082649 -277.12109375 130.1796875 C-275.67133532 128.44288416 -274.24035436 126.69231231 -272.8125 124.9375 C-266.60456568 117.403502 -259.87838522 110.4237971 -253 103.5 C-252.13761719 102.62835205 -251.27523437 101.7567041 -250.38671875 100.85864258 C-245.1677105 95.66483976 -239.75636656 90.88455133 -234.01147461 86.2800293 C-232.08235774 84.73015861 -230.2000453 83.15879429 -228.34765625 81.51953125 C-213.74591997 68.67754511 -197.33976933 58.07610832 -180.5625 48.3125 C-179.82821777 47.88485352 -179.09393555 47.45720703 -178.33740234 47.01660156 C-124.20225274 15.72693513 -62.43222074 -0.23969455 0 0 Z " fill="#692E48" transform="translate(359.5625,-0.31250000000000006)"/>
<path d="M0 0 C7.26 0 14.52 0 22 0 C22 38.61 22 77.22 22 117 C16.72 117.66 11.44 118.32 6 119 C4.02 119.33 2.04 119.66 0 120 C0 110.43 0 100.86 0 91 C-13.86 91 -27.72 91 -42 91 C-42 184.39 -42 277.78 -42 374 C-28.47 374 -14.94 374 -1 374 C-1 364.76 -1 355.52 -1 346 C4 347 4 347 7 348 C12.28 348.33 17.56 348.66 23 349 C23 385.96 23 422.92 23 461 C15.41 461 7.82 461 0 461 C0 449.45 0 437.9 0 426 C-30.36 426 -60.72 426 -92 426 C-92 298.95 -92 171.9 -92 41 C-61.64 41 -31.28 41 0 41 C0 27.47 0 13.94 0 0 Z " fill="#FEFEFE" transform="translate(337,130)"/>
<path d="M0 0 C7.26 0 14.52 0 22 0 C22 15.18 22 30.36 22 46 C25.3 46.66 28.6 47.32 32 48 C33.68619059 48.50090383 35.36204289 49.04310701 37.0078125 49.6640625 C37.84094971 49.97722412 38.67408691 50.29038574 39.5324707 50.61303711 C40.38800537 50.94698486 41.24354004 51.28093262 42.125 51.625 C43.03660889 51.97763916 43.94821777 52.33027832 44.88745117 52.69360352 C53.20042131 55.97118906 61.13795167 59.76536419 69 64 C69.66338379 64.35175293 70.32676758 64.70350586 71.01025391 65.06591797 C98.07619935 79.47647758 123.09679708 100.24566537 140 126 C140.3923584 126.59603027 140.7847168 127.19206055 141.18896484 127.80615234 C150.88584654 142.76346045 158.36054086 158.79254218 163 176 C163.21640137 176.76924805 163.43280273 177.53849609 163.65576172 178.33105469 C177.79630328 228.81712813 170.99515309 286.45671119 145.73046875 332.27734375 C136.07389471 349.2516581 123.17572449 365.62987163 108 378 C107.01644531 378.82113281 106.03289062 379.64226562 105.01953125 380.48828125 C85.59201088 396.43380763 49.19547323 421 23 421 C23 434.2 23 447.4 23 461 C15.41 461 7.82 461 0 461 C0 422.39 0 383.78 0 344 C3.96 343.01 7.92 342.02 12 341 C15.19586348 339.05130275 18.04544299 337.21260547 21 335 C21.66 334.67 22.32 334.34 23 334 C23 345.22 23 356.44 23 368 C32.70990606 364.47528406 32.70990606 364.47528406 42 360.1875 C43.02552979 359.66603394 43.02552979 359.66603394 44.07177734 359.1340332 C77.46665202 341.90265477 101.93868718 313.5780827 114 278 C115.65867936 272.40735248 116.91221242 266.7292638 118 261 C118.17805176 260.1430957 118.35610352 259.28619141 118.53955078 258.40332031 C120.20083782 249.72099498 120.31552638 241.17406613 120.25 232.375 C120.24656586 231.6233255 120.24313171 230.871651 120.23959351 230.09719849 C120.14575087 212.59147275 118.86106003 196.60122239 113 180 C112.75121094 179.29488281 112.50242187 178.58976563 112.24609375 177.86328125 C106.01786912 160.6808927 96.81087299 146.93611895 84 134 C83.32453125 133.26394531 82.6490625 132.52789062 81.953125 131.76953125 C66.07230616 114.76891109 43.64554548 105.21518183 22 98 C22 108.89 22 119.78 22 131 C15.565 127.535 15.565 127.535 9 124 C6.03 123.34 3.06 122.68 0 122 C0 81.74 0 41.48 0 0 Z " fill="#FEFEFE" transform="translate(389,130)"/>
</svg>
